<?xml version="1.0" encoding="UTF-8" standalone="no"?>
<!-- Created with Inkscape (http://www.inkscape.org/) -->

<svg
   width="450.04999"
   height="87.639999"
   viewBox="0 0 450.04999 87.639999"
   version="1.1"
   id="svg1"
   xml:space="preserve"
   xmlns:xlink="http://www.w3.org/1999/xlink"
   xmlns="http://www.w3.org/2000/svg"
   xmlns:svg="http://www.w3.org/2000/svg"><defs
     id="defs1"><linearGradient
       id="linearGradient10"><stop
         style="stop-color:#00f3ff;stop-opacity:1;"
         offset="0"
         id="stop10" /><stop
         style="stop-color:#4b86ef;stop-opacity:1;"
         offset="0.24263969"
         id="stop13" /><stop
         style="stop-color:#8a2be2;stop-opacity:1;"
         offset="0.61701739"
         id="stop12" /><stop
         style="stop-color:#ff00ff;stop-opacity:1;"
         offset="1"
         id="stop11" /></linearGradient><filter
       style="color-interpolation-filters:sRGB"
       id="filter43"
       x="-0.042712218"
       y="-0.22038598"
       width="1.0854244"
       height="1.440772"><feFlood
         result="flood"
         in="SourceGraphic"
         flood-opacity="0.5"
         flood-color="rgb(0,243,255)"
         id="feFlood42" /><feGaussianBlur
         result="blur"
         in="SourceGraphic"
         stdDeviation="8"
         id="feGaussianBlur42" /><feOffset
         result="offset"
         in="blur"
         dx="0.000000"
         dy="0.000000"
         id="feOffset42" /><feComposite
         result="comp1"
         operator="in"
         in="flood"
         in2="offset"
         id="feComposite42" /><feComposite
         result="comp2"
         operator="atop"
         in="comp1"
         in2="SourceGraphic"
         id="feComposite43" /></filter><linearGradient
       xlink:href="#linearGradient10"
       id="linearGradient11"
       x1="40.947403"
       y1="-85.057228"
       x2="409.17285"
       y2="172.77701"
       gradientUnits="userSpaceOnUse" /><linearGradient
       xlink:href="#linearGradient10"
       id="linearGradient2"
       gradientUnits="userSpaceOnUse"
       x1="40.947403"
       y1="-85.057228"
       x2="409.17285"
       y2="172.77701" /><linearGradient
       xlink:href="#linearGradient10"
       id="linearGradient3"
       gradientUnits="userSpaceOnUse"
       x1="40.947403"
       y1="-85.057228"
       x2="409.17285"
       y2="172.77701" /></defs><g
     id="layer1"><g
       id="g1"
       style="fill:url(#linearGradient11);fill-opacity:1;filter:url(#filter43)"><path
         id="path1"
         style="fill:url(#linearGradient2);fill-opacity:1;stroke-width:0.11768"
         d="m 24.243304,0.31001266 c -3.761126,0.204936 -3.334074,3.49502504 -3.125091,5.44241904 0.194395,1.811444 0.84892,3.1606562 1.453079,4.1081852 1.019943,1.5996221 1.586081,2.4089571 2.473785,3.5215491 1.177004,1.475206 2.296914,3.092016 1.426244,4.057898 -0.487024,0.540279 -3.212287,0.230985 -4.488911,-0.82947 -4.826079,-4.00888 -7.295,-5.476198 -16.3358721,-6.8538211 -4.225882,-0.643925 -3.861193,0.4813261 2.759652,8.5173491 6.1012801,7.405396 10.0407751,10.376774 15.3675991,11.590628 1.012202,0.230657 1.13118,0.344786 1.861408,1.788748 0.55103,1.08959 0.558082,1.068681 -0.548734,1.627004 -3.98246,2.008913 -7.930527,7.379426 -10.726851,14.591719 -2.838494,7.321056 0.827873,11.081745 3.145715,11.664237 2.548379,0.640429 5.684301,0.35006 9.675774,0.211668 2.550807,-0.08845 4.378888,0.26455 5.114718,1.405016 0.880823,1.365186 0.651826,1.093411 -0.139702,4.809067 -0.963222,4.521644 -0.991981,6.334934 -0.573831,7.379784 0.652173,1.62956 3.27261,1.81858 6.416383,1.64316 l 3.02781,-0.169 2.883889,-0.53397 c 0.646076,-0.20511 0.969734,-1.21357 0.969734,-2.14763 0,-1.65793 -0.169788,-1.81823 -5.687842,-2.873577 -1.785987,-0.341555 -0.499823,-1.602547 0.349964,-5.457407 1.33317,-6.04763 3.207917,-9.108146 0.06822,-10.681613 -1.200425,-0.601588 -5.286181,-1.805852 -6.126648,-1.805852 -0.205797,0 0.07722,-0.475076 0.984732,-1.653027 1.22108,-1.584937 1.230163,-2.292463 3.310511,-2.048933 0.614254,0.07191 3.92232,1.30864 5.307632,2.142463 3.926547,2.363382 3.34911,5.294983 3.275338,6.151732 -0.05115,0.594092 -0.343564,1.789633 -0.901759,4.001299 -0.204759,0.811301 -0.822771,2.364995 -1.331417,3.897454 0,0 -0.987228,2.022694 -0.445136,2.27185 2.510607,1.153942 5.597002,2.040851 6.214062,2.848244 1.10256,1.442627 0.79806,8.691787 -3.731949,10.275637 l -0.806812,0.28222 -7.262345,0.0368 c -8.0764,0.041 -8.14202,0.0358 -9.715163,-0.74984 -3.085655,-1.54114 -3.22769,-4.77804 -0.587181,-13.368832 0.191727,-0.623789 0.330786,-1.152558 0.309179,-1.175085 -0.0216,-0.02251 -1.127708,0.04059 -2.458203,0.140183 -7.68555,0.575306 -10.539205,-0.09243 -13.51627,-3.162817 l -1.069591,-1.10311 -2.9347511,0.647891 c -3.916733,0.864898 -4.591513,1.223066 -5.761446,3.05712 -4.087421,6.40766 -1.75424404,18.41347 3.947617,20.31309 0.999681,0.33304 0.634893,0.34854 29.7108551,-1.26861 4.184487,-0.23273 11.991386,-0.66599 17.34879,-0.96271 5.3574,-0.29671 11.56813,-0.64739 13.80153,-0.77939 2.23339,-0.132 4.17013,-0.24002 4.30393,-0.24002 0.17229,0 -0.0202,-0.20511 -0.6601,-0.70323 -4.70785,-3.66478 -6.83602,-10.523465 -5.59712,-18.038178 1.54585,-9.376604 8.62436,-9.3951 11.77997,-4.852101 1.38097,1.988113 3.18995,12.408369 0.52989,12.985449 -1.91784,0.41609 -2.87898,-4.991565 -2.99792,-5.930206 -0.11772,-0.929008 -0.82467,-3.430614 -2.04836,-3.42138 -1.07709,0.0081 -1.74769,1.081643 -2.07875,2.781936 -0.31534,1.61953 -0.0575,3.601431 0.40569,5.90425 0.54317,2.70057 1.68395,5.32017 3.44398,7.15623 2.19182,2.28653 5.38027,2.52902 7.51824,-1.34912 4.68269,-8.494034 2.65728,-21.46277 -4.1717,-26.710685 -2.58855,-1.989246 -4.26279,-2.260364 -9.1282,-1.478163 -6.23571,1.002499 -7.51251,1.520822 -7.77851,1.520822 -0.15109,0 -2.78773,-0.0029 -4.04466,-0.952152 -0.25413,-0.191935 -9.031882,-4.792894 -9.731085,-5.084021 -5.362356,-2.232715 -7.376561,-4.88993 -4.69631,-4.498697 3.813564,0.556646 5.565177,-0.708712 7.323505,-2.569558 1.11262,-1.177465 2.67316,-3.311908 2.67316,-4.790528 0,-0.715066 -0.0325,-0.710303 3.78424,-0.556951 3.94484,0.158495 4.2481,0.111589 4.74272,-0.733924 0.95897,-1.639252 -0.17247,-3.077617 -5.75816,-6.442625 -1.07662,-0.648597 -3.46459,-1.87067 -3.10047,-2.50837 0.69171,-1.211461 1.28923,-2.801736 0.72618,-4.596684 C 49.796639,7.0262377 39.206287,1.0489777 25.052477,0.31146666 c -0.289276,-0.01507 -0.558429,-0.01506 -0.809166,-0.0013 z M 42.176618,18.331609 c 1.477227,0.312026 2.484186,0.757873 3.909216,1.326127 1.389117,0.593957 0.724013,3.375369 -1.481675,4.299083 -1.878965,0.696019 -3.781749,-1.138231 -4.674161,-2.243312 -0.76173,-0.872142 -2.750863,-2.442223 -2.586244,-3.607214 0.36503,-0.958588 3.85405,-0.03164 4.832864,0.225316 z" /><path
         style="font-weight:bold;font-size:80px;font-family:Orbitron;-inkscape-font-specification:'Orbitron Bold';white-space:pre;fill:url(#linearGradient3)"
         d="m 136.19477,99.532764 v -57.68 h 10.56 v 47.04 h 47.04 v 10.64 z m 72.87994,0 q -3.04,0 -5.52,-1.52 -2.48,-1.52 -4,-4 -1.52,-2.48 -1.52,-5.52 v -24.32 q 0,-3.04 1.52,-5.52 1.52,-2.48 4,-4 2.48,-1.52 5.52,-1.52 h 25.04 q 3.04,0 5.52,1.52 2.56,1.52 4,4 1.52,2.48 1.52,5.52 v 24.32 q 0,3.04 -1.52,5.52 -1.44,2.48 -3.92,4 -2.48,1.52 -5.6,1.52 z m 0.4,-10.48 h 24.24 q 0.4,0 0.64,-0.24 0.32,-0.32 0.32,-0.72 v -23.52 q 0,-0.4 -0.32,-0.64 -0.24,-0.32 -0.64,-0.32 h -24.24 q -0.4,0 -0.72,0.32 -0.24,0.24 -0.24,0.64 v 23.52 q 0,0.4 0.24,0.72 0.32,0.24 0.72,0.24 z m 50.87996,28.799996 v 0 -10.56 h 27.92 q 0.4,0 0.64,-0.32 0.32,-0.24 0.32,-0.64 v -6.799996 h -25.6 q -2.96,0 -5.52,-1.52 -2.48,-1.52 -4,-4 -1.52,-2.48 -1.52,-5.52 v -24.32 q 0,-3.04 1.52,-5.52 1.52,-2.48 4,-4 2.56,-1.52 5.52,-1.52 h 25.12 q 3.04,0 5.52,1.52 2.48,1.52 3.92,4 1.52,2.48 1.52,5.52 v 42.639996 q 0,3.12 -1.44,5.6 -1.44,2.48 -4,3.92 -2.48,1.52 -5.52,1.52 z m 3.68,-28.799996 h 24.24 q 0.4,0 0.64,-0.24 0.32,-0.32 0.32,-0.72 v -23.52 q 0,-0.4 -0.32,-0.64 -0.24,-0.32 -0.64,-0.32 h -24.24 q -0.4,0 -0.72,0.32 -0.24,0.24 -0.24,0.64 v 23.52 q 0,0.4 0.24,0.72 0.32,0.24 0.72,0.24 z m 44.64004,10.48 v -57.6 h 44.16 q 3.04,0 5.52,1.52 2.56,1.52 4.08,4.08 1.52,2.48 1.52,5.52 v 11.28 q 0,1.04 -0.16,2 -0.16,0.96 -0.56,1.84 1.36,1.84 2.16,3.84 0.88,2 0.88,4 v 12.4 q 0,3.04 -1.52,5.6 -1.52,2.48 -4.08,4 -2.56,1.52 -5.6,1.52 z m 11.52,-10.64 h 34.4 q 0.4,0 0.72,-0.24 0.32,-0.32 0.32,-0.72 v -11.44 q 0,-0.4 -0.32,-0.64 -0.32,-0.32 -0.72,-0.32 h -34.4 q -0.4,0 -0.72,0.32 -0.24,0.24 -0.24,0.64 v 11.44 q 0,0.4 0.24,0.72 0.32,0.24 0.72,0.24 z m 0,-24 h 32.16 q 0.4,0 0.64,-0.24 0.24,-0.32 0.24,-0.72 v -10.4 q 0,-0.4 -0.24,-0.64 -0.24,-0.32 -0.64,-0.32 h -32.16 q -0.4,0 -0.72,0.32 -0.24,0.24 -0.24,0.64 v 10.4 q 0,0.4 0.24,0.72 0.32,0.24 0.72,0.24 z m 65.52006,34.64 q -3.04,0 -5.6,-1.52 -2.48,-1.52 -4,-4 -1.44,-2.48 -1.44,-5.52 v -17.44 h 36.64 v -6.48 q 0,-0.4 -0.32,-0.64 -0.24,-0.32 -0.64,-0.32 h -35.68 v -10.48 h 36.08 q 3.04,0 5.52,1.52 2.56,1.52 4,4 1.52,2.48 1.52,5.52 v 35.36 z m 0.4,-10.48 h 25.2 v -8.56 h -26.16 v 7.6 q 0,0.4 0.24,0.72 0.32,0.24 0.72,0.24 z m 44.08002,10.48 v 0 -46.4 h 10.48 v 46.4 z m 0,-51.04 v 0 -10.56 h 10.48 v 10.56 z m 30,51.04 q -3.04,0 -5.52,-1.52 -2.48,-1.52 -4,-4 -1.52,-2.48 -1.52,-5.52 v -49.6 h 10.48 v 14.24 h 18.08 v 10.48 h -18.08 v 24.48 q 0,0.4 0.24,0.72 0.32,0.24 0.72,0.24 h 17.12 v 10.48 z"
         id="text1"
         transform="translate(-27.894702,-30.43288)"
         aria-label="LogBait" /></g></g></svg>
