<?xml version="1.0" encoding="UTF-8" standalone="no"?>
<!-- Created with Inkscape (http://www.inkscape.org/) -->

<svg
   version="1.1"
   id="svg1"
   width="700"
   height="700"
   viewBox="0 0 700 700"
   sodipodi:docname="icon.svg"
   inkscape:version="1.4.2 (ebf0e940d0, 2025-05-08)"
   xmlns:inkscape="http://www.inkscape.org/namespaces/inkscape"
   xmlns:sodipodi="http://sodipodi.sourceforge.net/DTD/sodipodi-0.dtd"
   xmlns:xlink="http://www.w3.org/1999/xlink"
   xmlns="http://www.w3.org/2000/svg"
   xmlns:svg="http://www.w3.org/2000/svg">
  <sodipodi:namedview
     id="namedview1"
     pagecolor="#ffffff"
     bordercolor="#000000"
     borderopacity="0.25"
     inkscape:showpageshadow="2"
     inkscape:pageopacity="0.0"
     inkscape:pagecheckerboard="0"
     inkscape:deskcolor="#d1d1d1"
     inkscape:zoom="0.3112367"
     inkscape:cx="446.60543"
     inkscape:cy="700.43154"
     inkscape:window-width="1536"
     inkscape:window-height="836"
     inkscape:window-x="0"
     inkscape:window-y="0"
     inkscape:window-maximized="1"
     inkscape:current-layer="svg1" />
  <defs
     id="defs1">
    <linearGradient
       id="linearGradient1"
       inkscape:collect="always">
      <stop
         style="stop-color:#00f3ff;stop-opacity:1;"
         offset="0"
         id="stop1" />
      <stop
         style="stop-color:#8a2be2;stop-opacity:1;"
         offset="1"
         id="stop2" />
    </linearGradient>
    <linearGradient
       inkscape:collect="always"
       xlink:href="#linearGradient1"
       id="linearGradient2"
       x1="597.4873"
       y1="102.55971"
       x2="102.51239"
       y2="597.53461"
       gradientUnits="userSpaceOnUse" />
  </defs>
  <path
     id="path1"
     style="fill:url(#linearGradient2);stroke-width:0.980547"
     d="M 199.50195,0.17773438 C 168.16326,1.8853232 171.72157,29.299186 173.46289,45.525391 c 1.61975,15.093436 7.07342,26.335407 12.10742,34.230468 8.49843,13.328477 13.21568,20.072058 20.6122,29.342471 9.80717,12.29181 19.13856,25.76349 11.88387,33.81146 -4.05804,4.50175 -26.76561,1.92463 -37.40277,-6.91135 C 140.45144,102.5954 119.87974,90.369335 44.548828,78.890625 9.3376686,73.525255 12.376359,82.90115 67.542969,149.85938 c 50.837461,61.70371 83.662381,86.46207 128.046871,96.57617 8.43398,1.92191 9.42533,2.8728 15.50977,14.90429 4.59124,9.0788 4.65008,8.90451 -4.57227,13.55664 -33.18286,16.73882 -66.07919,61.48731 -89.3789,121.58204 -23.651064,61.00093 6.89807,92.336 26.21094,97.18945 21.23373,5.33619 47.36307,2.9168 80.62109,1.76367 21.25396,-0.73692 36.486,2.20428 42.61719,11.70703 7.33918,11.37502 5.43113,9.11054 -1.16407,40.07031 -8.02583,37.67556 -8.26543,52.78432 -4.78125,61.49024 5.43401,13.57794 27.26818,15.15291 53.46289,13.6914 l 25.22852,-1.4082 24.0293,-4.44922 c 5.38328,-1.70894 8.08007,-10.11171 8.08007,-17.89453 10e-6,-13.81442 -1.41468,-15.15005 -47.39257,-23.94336 -14.88129,-2.84606 -4.16464,-13.35297 2.91601,-45.47265 11.10836,-50.39047 26.72919,-75.89147 0.56836,-89.00196 -10.00223,-5.01263 -44.04582,-15.04687 -51.04883,-15.04687 -1.71477,0 0.64332,-3.95847 8.20508,-13.77344 10.1744,-13.20611 10.25003,-19.10142 27.58399,-17.07227 5.11816,0.59914 32.68182,10.90398 44.22461,17.85157 32.71697,19.6923 27.90567,44.11914 27.29101,51.25781 -0.42623,4.95018 -2.86268,14.91168 -7.51367,33.33984 -1.70614,6.76005 -6.85555,19.70582 -11.09375,32.47461 0,0 -8.22582,16.85367 -3.70898,18.92969 20.91903,9.61489 46.63571,17.00492 51.77734,23.73242 9.18669,12.0202 6.64947,72.42208 -31.0957,85.61914 l -6.72266,2.35157 -60.51172,0.30664 c -67.29466,0.34161 -67.84146,0.29861 -80.94922,-6.24805 -25.71058,-12.84111 -26.89406,-39.81174 -4.89258,-111.39258 1.59753,-5.19751 2.75619,-9.60341 2.57618,-9.79101 -0.18001,-0.1876 -9.39642,0.33813 -20.48243,1.16796 -64.038,4.79348 -87.8154,-0.77027 -112.62109,-26.35351 l -8.912109,-9.19141 -24.453125,5.39844 c -32.63523,7.20644 -38.25766,10.19084 -48.00586,25.47266 -34.05745,53.39032 -14.6168296,153.4258 32.892578,169.2539 8.32959,2.77505 5.290074,2.90426 247.558596,-10.57031 34.86624,-1.9392 99.91534,-5.54915 144.55469,-8.02148 44.63935,-2.47234 96.38876,-5.39424 114.99804,-6.49414 18.60928,-1.09992 34.74657,-2 35.86133,-2 1.43567,0 -0.16833,-1.70898 -5.5,-5.85938 -39.22702,-30.536 -56.95947,-87.68427 -46.63672,-150.29883 12.88037,-78.12837 71.86049,-78.28245 98.15385,-40.42901 11.50656,16.56551 26.57953,103.38978 4.41526,108.19828 -15.97999,3.46684 -23.98842,-41.59108 -24.9795,-49.4121 -0.98091,-7.74076 -6.87144,-28.58484 -17.06751,-28.50783 -8.97464,0.0678 -14.56217,9.01246 -17.32067,23.17983 -2.62745,13.49425 -0.47898,30.00801 3.38032,49.19584 4.52582,22.50166 14.03102,44.3288 28.69609,59.62746 18.26285,19.05188 44.82987,21.07249 62.64404,-11.24114 39.01733,-70.77459 22.14113,-178.83348 -34.75977,-222.56055 -21.56838,-16.57481 -35.51864,-18.83389 -76.05859,-12.3164 -51.95761,8.35307 -62.59623,12.67187 -64.8125,12.67187 -1.259,0 -23.22811,-0.024 -33.70117,-7.93359 -2.11755,-1.59924 -75.25608,-39.93558 -81.08204,-42.36133 -44.68057,-18.6036 -61.46344,-40.74419 -39.13085,-37.48438 31.77559,4.63818 46.37051,-5.90515 61.02148,-21.41015 9.27061,-9.81101 22.27344,-27.59579 22.27344,-39.91602 0,-5.95808 -0.27055,-5.91838 31.53125,-4.64062 32.86948,1.32066 35.39622,0.92977 39.51757,-6.11524 7.99039,-13.65863 -1.43706,-25.64355 -47.97851,-53.68164 -8.97077,-5.40428 -28.86783,-15.58691 -25.83399,-20.90039 5.76356,-10.09421 10.74228,-23.3448 6.05079,-38.30078 C 412.41917,56.138665 324.17738,6.3345731 206.24414,0.18945312 203.83381,0.06385876 201.5912,0.06389509 199.50195,0.17773438 Z M 348.92702,150.3384 c 12.3087,2.59986 20.69887,6.31478 32.57262,11.04962 11.57446,4.94901 6.03264,28.12447 -12.34568,35.82109 -15.65604,5.79945 -31.51059,-9.48404 -38.94636,-18.69185 -6.34693,-7.26693 -22.92089,-20.34925 -21.54931,-30.05627 3.04156,-7.98721 32.113,-0.26363 40.26873,1.87741 z"
     sodipodi:nodetypes="ssssssssssssssssscccsssssssssscsscccsssssccssssssssssssssssssssssssssssssscccccc" />
</svg>
