<?xml version="1.0" encoding="UTF-8" standalone="no"?>
<!-- Created with Inkscape (http://www.inkscape.org/) -->

<svg
   version="1.1"
   id="svg1"
   width="699.99976"
   height="699.90643"
   viewBox="0 0 699.99976 699.90643"
   xml:space="preserve"
   xmlns:xlink="http://www.w3.org/1999/xlink"
   xmlns="http://www.w3.org/2000/svg"
   xmlns:svg="http://www.w3.org/2000/svg"><defs
     id="defs1"><linearGradient
       id="linearGradient5"><stop
         style="stop-color:#00f3ff;stop-opacity:1;"
         offset="0.05"
         id="stop5" /><stop
         style="stop-color:#8a2be2;stop-opacity:1;"
         offset="0.5"
         id="stop7" /><stop
         style="stop-color:#ff00ff;stop-opacity:1;"
         offset="0.94999999"
         id="stop6" /></linearGradient><linearGradient
       xlink:href="#linearGradient5"
       id="linearGradient6"
       x1="11.925963"
       y1="259.41333"
       x2="688.07404"
       y2="440.58667"
       gradientUnits="userSpaceOnUse" /></defs><rect
     style="fill:url(#linearGradient6);fill-opacity:1"
     id="rect1"
     width="700"
     height="700"
     x="0"
     y="0" /><path
     id="path1"
     style="fill:#ffffff;fill-opacity:1;stroke-width:0.498712"
     d="m 289.461,168.04287 c -15.93796,0.86855 -14.12832,14.81232 -13.24272,23.06561 0.82376,7.67712 3.59733,13.39522 6.15749,17.41097 4.32206,6.77941 6.7211,10.20943 10.48277,14.92473 4.98764,6.2521 9.73333,13.10432 6.0438,17.19784 -2.0638,2.28978 -13.61222,0.97894 -19.02199,-3.51537 -20.45076,-16.99012 -30.91295,-23.20877 -69.2241,-29.04729 -17.90742,-2.72904 -16.36202,2.03991 11.69416,36.0975 25.85448,31.38493 42.54833,43.97801 65.121,49.12246 4.28926,0.97755 4.79345,1.46121 7.88782,7.58091 2.33499,4.61782 2.36491,4.52916 -2.32531,6.89543 -16.87586,8.51403 -33.60601,31.27487 -45.45559,61.84142 -12.02824,31.02749 3.50816,46.96574 13.33017,49.4344 10.79887,2.71418 24.08749,1.48359 41.00158,0.89706 10.80916,-0.3748 18.55573,1.12119 21.67389,5.95466 3.73251,5.7858 2.76213,4.63397 -0.59202,20.38134 -4.08169,19.16328 -4.20354,26.84821 -2.43161,31.27635 2.76359,6.90631 13.86784,7.70737 27.18973,6.964 l 12.83049,-0.71627 12.22063,-2.26304 c 2.73777,-0.86923 4.10928,-5.14322 4.10928,-9.10187 1e-5,-7.02655 -0.71945,-7.70592 -24.10251,-12.17854 -7.56819,-1.44761 -2.11801,-6.79184 1.48301,-23.12917 5.64939,-25.63059 13.5937,-38.6014 0.28905,-45.26993 -5.08684,-2.5496 -22.40046,-7.65344 -25.96199,-7.65344 -0.87209,0 0.32719,-2.01342 4.17288,-7.0057 5.1744,-6.71713 5.21285,-9.71573 14.02842,-8.68363 2.60296,0.30475 16.62105,5.54621 22.49138,9.08002 16.63891,10.01628 14.19202,22.44074 13.87944,26.07174 -0.21677,2.51784 -1.45588,7.58468 -3.82124,16.95795 -0.8677,3.43842 -3.48654,10.02316 -5.64198,16.51786 0,0 -4.1834,8.57248 -1.88628,9.62841 10.63885,4.89051 23.71761,8.64937 26.33248,12.07124 4.6721,6.11394 3.38173,36.83673 -15.81438,43.54928 l -3.41894,1.19608 -30.77454,0.15599 c -34.22416,0.17376 -34.50225,0.15188 -41.16847,-3.178 -13.07568,-6.53149 -13.67756,-20.24983 -2.48824,-56.65869 0.81245,-2.64365 1.40173,-4.88464 1.31016,-4.98007 -0.0915,-0.0954 -4.77872,0.17197 -10.41677,0.59408 -32.56792,2.43815 -44.66041,-0.39181 -57.27589,-13.40445 l -4.53243,-4.67511 -12.43618,2.74585 c -16.59734,3.66549 -19.45676,5.18347 -24.41442,12.95638 -17.32066,27.15646 -7.43371,78.03843 16.72823,86.08923 4.23619,1.41151 2.6904,1.47723 125.90129,-5.37647 17.73197,-0.98637 50.81407,-2.82251 73.5164,-4.08005 22.70229,-1.25753 49.02059,-2.74371 58.48475,-3.30318 9.46414,-0.55945 17.67108,-1.01727 18.23804,-1.01727 0.73013,0 -0.0856,-0.86926 -2.79715,-2.98032 -19.94974,-15.53181 -28.96795,-44.59967 -23.71811,-76.4479 6.55058,-39.73917 36.5462,-39.81753 49.91827,-20.5638 5.8519,8.42588 13.51758,52.58813 2.24546,55.03393 -8.12697,1.76338 -12.19981,-21.15487 -12.70385,-25.13296 -0.49887,-3.93725 -3.49463,-14.53939 -8.68004,-14.5002 -4.56425,0.0345 -7.40592,4.5841 -8.80884,11.79018 -1.33623,6.8637 -0.24357,15.26325 1.71915,25.02294 2.30169,11.44524 7.13577,22.54737 14.59402,30.32889 9.28797,9.69052 22.7992,10.71828 31.85898,-5.71769 19.84311,-35.99877 11.26036,-90.96177 -17.67781,-113.20307 -10.96908,-8.43064 -18.0638,-9.57967 -38.68126,-6.2646 -26.42417,4.24869 -31.83467,6.44538 -32.9618,6.44538 -0.64029,0 -11.81315,-0.0122 -17.13945,-4.03533 -1.07693,-0.81342 -38.27312,-20.31281 -41.23603,-21.54662 -22.72328,-9.46256 -31.25856,-20.72412 -19.90083,-19.06606 16.16016,2.35917 23.58272,-3.00357 31.03378,-10.89005 4.71477,-4.99026 11.32764,-14.0363 11.32764,-20.30283 0,-3.03053 -0.13759,-3.01036 16.0359,-2.36041 16.7165,0.67171 18.00152,0.4729 20.09752,-3.11048 4.06367,-6.94731 -0.73087,-13.0433 -24.40052,-27.3046 -4.56226,-2.7488 -14.68134,-7.92811 -13.13844,-10.63073 2.9312,-5.13434 5.46324,-11.8741 3.07727,-19.48131 -11.93095,-38.03967 -56.80823,-63.37198 -116.78572,-66.49764 -1.22583,-0.0639 -2.36636,-0.0639 -3.42888,-0.007 z m 75.99333,76.37764 c 6.25987,1.32238 10.52688,3.21195 16.56553,5.62027 5.88643,2.51726 3.06803,14.30523 -6.27868,18.22002 -7.96219,2.94983 -16.02539,-4.82394 -19.80699,-9.5074 -3.22787,-3.69628 -11.65694,-10.35044 -10.95939,-15.28781 1.54686,-4.06261 16.33178,-0.13409 20.47953,0.95492 z" /></svg>
